<mxfile host="app.diagrams.net" modified="2024-07-19T13:50:39.909Z" agent="Mozilla/5.0 (X11; Ubuntu; Linux x86_64; rv:128.0) Gecko/20100101 Firefox/128.0" version="24.7.2" etag="F6m6_7FViTnlYH80l6ZB" type="github">
  <diagram name="PÃ¡gina-1" id="wfEwrLy6aRAyXvs7007H">
    <mxGraphModel>
      <root>
        <mxCell id="0" />
        <mxCell id="1" parent="0" />
      </root>
    </mxGraphModel>
  </diagram>
</mxfile>
